<svg xmlns="http://www.w3.org/2000/svg" fill='#f0a04b' height="48" viewBox="0 96 960 960" width="48"><path d="M280.402 984.761q-31.579 0-53.838-22.488-22.26-22.488-22.26-54.067t22.488-53.838q22.488-22.259 54.067-22.259t53.838 22.488q22.26 22.488 22.26 54.067 0 31.578-22.488 53.838-22.488 22.259-54.067 22.259Zm408.513 0q-31.679 0-53.819-22.488-22.139-22.488-22.139-54.067t22.423-53.838q22.423-22.259 53.911-22.259 31.799 0 53.939 22.488t22.14 54.067q0 31.578-22.388 53.838-22.387 22.259-54.067 22.259ZM238.022 316.87l104.652 216.304H632L750.174 316.87H238.022Zm-36.957-74.435h601.314q25.329 0 38.823 23.63 13.494 23.631.298 47.5L703.45 561.529q-11.311 20.175-30.675 33.247-19.365 13.072-42.851 13.072h-305.62l-50 92.956h494.457v74.435H270.63q-46.717 0-66.576-31.859-19.858-31.858.62-70.337l62-115.043-150.565-320.13h-81.24v-74.435h129.196l37 79Zm141.609 290.739H632 342.674Z"/></svg>